<svg xmlns="http://www.w3.org/2000/svg" viewBox="0 0 1024 1024" width="1024" height="1024">
  <defs>
    <linearGradient id="tile" x1="0" y1="0" x2="1" y2="1"><stop offset="0.0" stop-color="#2b2c5e"/><stop offset="0.55" stop-color="#22506b"/><stop offset="1.0" stop-color="#166a78"/></linearGradient>
    <radialGradient id="corona" cx="0.5" cy="0.5" r="0.5"><stop offset="0.0" stop-color="#ffb457" stop-opacity="0.85"/><stop offset="0.45" stop-color="#ff9a3d" stop-opacity="0.4"/><stop offset="1.0" stop-color="#ff9a3d" stop-opacity="0.0"/></radialGradient>
    <radialGradient id="sun" cx="0.5" cy="0.5" r="0.5"><stop offset="0.0" stop-color="#fffef8"/><stop offset="0.45" stop-color="#fff3cc"/><stop offset="0.8" stop-color="#ffdf9e"/><stop offset="1.0" stop-color="#ffc474"/></radialGradient>
    <linearGradient id="lit2" gradientUnits="userSpaceOnUse" x1="642.3" y1="378.9" x2="728.2" y2="291.3"><stop offset="0" stop-color="#efe7c6"/><stop offset="1" stop-color="#968c69"/></linearGradient><linearGradient id="lit3" gradientUnits="userSpaceOnUse" x1="688.9" y1="514.7" x2="811.6" y2="516.5"><stop offset="0" stop-color="#efe7c6"/><stop offset="1" stop-color="#968c69"/></linearGradient><linearGradient id="lit1" gradientUnits="userSpaceOnUse" x1="361.5" y1="608.8" x2="258.2" y2="675.2"><stop offset="0" stop-color="#efe7c6"/><stop offset="1" stop-color="#968c69"/></linearGradient><linearGradient id="lit6" gradientUnits="userSpaceOnUse" x1="512.0" y1="342.3" x2="512.0" y2="219.6"><stop offset="0" stop-color="#efe7c6"/><stop offset="1" stop-color="#968c69"/></linearGradient><linearGradient id="lit5" gradientUnits="userSpaceOnUse" x1="512.0" y1="688.9" x2="512.0" y2="811.7"><stop offset="0" stop-color="#efe7c6"/><stop offset="1" stop-color="#968c69"/></linearGradient>
    <clipPath id="squircle"><rect x="0" y="0" width="1024" height="1024" rx="0" ry="0"/></clipPath>
  </defs>
  <g clip-path="url(#squircle)">
    <rect x="0" y="0" width="1024" height="1024" fill="url(#tile)"/>
    <g transform="translate(512.0 512.0) scale(1.5) translate(-512.0 -512.0)">
      <g><line x1="439.1" y1="558.9" x2="369.9" y2="603.4" stroke-linecap="round" stroke="#e8e5d1" stroke-width="3.6" opacity="0.51"/><line x1="572.7" y1="450.1" x2="635.3" y2="386.1" stroke-linecap="round" stroke="#e8e5d2" stroke-width="3.6" opacity="0.32"/><line x1="598.7" y1="513.3" x2="678.9" y2="514.5" stroke-linecap="round" stroke="#e9e5d1" stroke-width="3.6" opacity="0.44"/><line x1="512.0" y1="598.7" x2="512.0" y2="678.9" stroke-linecap="round" stroke="#e9e5d1" stroke-width="3.6" opacity="0.60"/><line x1="512.0" y1="425.3" x2="512.0" y2="352.3" stroke-linecap="round" stroke="#e9e5d1" stroke-width="3.6" opacity="0.60"/></g><g><g opacity="0.53"><circle cx="685.3" cy="335.1" r="46.6" fill="none" stroke="url(#lit2)" stroke-width="29.5" opacity="0.24"/><g stroke="url(#lit2)" fill="none"><circle cx="685.3" cy="335.1" r="61.4" stroke-width="9.2"/><circle cx="685.3" cy="335.1" r="31.9" stroke-width="7.4"/></g></g><g opacity="0.73"><circle cx="750.3" cy="515.6" r="46.6" fill="none" stroke="url(#lit3)" stroke-width="29.5" opacity="0.24"/><g stroke="url(#lit3)" fill="none"><circle cx="750.3" cy="515.6" r="61.4" stroke-width="9.2"/><circle cx="750.3" cy="515.6" r="31.9" stroke-width="7.4"/></g></g><g opacity="0.85"><circle cx="309.8" cy="642.0" r="46.6" fill="none" stroke="url(#lit1)" stroke-width="29.5" opacity="0.24"/><g stroke="url(#lit1)" fill="none"><circle cx="309.8" cy="642.0" r="61.4" stroke-width="9.2"/><circle cx="309.8" cy="642.0" r="31.9" stroke-width="7.4"/></g></g><g opacity="1.00"><circle cx="512.0" cy="280.9" r="46.6" fill="none" stroke="url(#lit6)" stroke-width="29.5" opacity="0.24"/><g stroke="url(#lit6)" fill="none"><circle cx="512.0" cy="280.9" r="61.4" stroke-width="9.2"/><circle cx="512.0" cy="280.9" r="31.9" stroke-width="7.4"/></g></g><g opacity="1.00"><circle cx="512.0" cy="750.3" r="46.6" fill="none" stroke="url(#lit5)" stroke-width="29.5" opacity="0.24"/><g stroke="url(#lit5)" fill="none"><circle cx="512.0" cy="750.3" r="61.4" stroke-width="9.2"/><circle cx="512.0" cy="750.3" r="31.9" stroke-width="7.4"/></g></g></g><circle cx="512.0" cy="512.0" r="168.8" fill="url(#corona)"/><circle cx="512.0" cy="512.0" r="76.7" fill="url(#sun)"/>
    </g>
  </g>
</svg>